<?xml version="1.0" encoding="utf-8"?>
<!-- Generator: Adobe Illustrator 25.2.3, SVG Export Plug-In . SVG Version: 6.00 Build 0)  -->
<svg version="1.1" id="Layer_1_copy" xmlns="http://www.w3.org/2000/svg" xmlns:xlink="http://www.w3.org/1999/xlink" x="0px"
	 y="0px" viewBox="0 0 620.6 230.2" style="enable-background:new 0 0 620.6 230.2;" xml:space="preserve">
<style type="text/css">
	.st0{fill:#FFFFFF;}
</style>
<path class="st0" d="M411.9,71.6c-2.2-0.1-4,1.7-4.1,3.9c-0.1,2.2,1.7,4,3.9,4.1c2.2,0.1,4-1.7,4.1-3.9
	C415.8,73.5,414.1,71.6,411.9,71.6z M413.9,76.7c-0.1,0-0.3,0-0.4-0.1c-0.4,0.6-1,1.1-1.8,1.1c-1.1,0-2-1-2-2.1s1-2,2.1-2
	c0.9,0,1.6,0.6,1.9,1.4c0.1,0,0.2-0.1,0.3,0c0.5,0,0.9,0.4,0.9,0.9C414.8,76.3,414.4,76.7,413.9,76.7z M425.7,180.1l3.4,30.8h-3.3
	l-2.1-18.6c-0.2-1.9-0.3-4.6-0.3-4.6s-0.9,2.6-1.9,4.3l-8.1,13.7H413l-8-13.7c-1-1.7-2-4.4-2-4.4s0,2.7-0.3,4.6l-2.1,18.6h-3.1
	l3.4-30.8h0.4l10.4,17.6c0.8,1.3,1.5,3.1,1.5,3.1s0.8-1.9,1.5-3.1l10.4-17.6L425.7,180.1L425.7,180.1z M448.3,208h15.9v2.9H445
	v-30.5h18.5v2.9h-15.3v14.3H462v2.8h-13.7V208z M487.4,180.4H480v30.5h7.4c10.2,0,16.5-6,16.5-15.2
	C503.9,186.4,497.6,180.4,487.4,180.4z M487.2,208h-3.9v-24.6h3.9c9,0,13.3,5.1,13.3,12.3S496.2,208,487.2,208z M88.8,42h25.1v101.2
	c0,1.2-0.4,1.6-2.1,0.3L49.3,92v49.7H24.2v-101c0-0.9,0.4-1.6,2.1-0.3L88.8,92V42z M539.4,42h25.1v101.2c0,1.2-0.4,1.6-2.1,0.3
	L499.8,92v49.7h-23.4c10.6-13.9,16.9-31.2,16.9-49.8l0,0c0-19.6-6.9-37.6-18.4-51.8c0.2-0.5,0.8-0.6,1.9,0.4L539.4,92V42z
	 M586.6,28.8c-6.8,0-12.5,5.2-12.5,12.4c0,7.1,5.6,12.3,12.5,12.3c7,0,12.7-5.2,12.7-12.3C599.3,33.9,593.6,28.8,586.6,28.8z
	 M586.6,51.4c-5.9,0-10.1-4.1-10.1-10.3c0-6.3,4.3-10.3,10.1-10.3c6,0,10.4,4.1,10.4,10.3S592.6,51.4,586.6,51.4z M364.7,191.7
	c0-6.6-4.3-11.2-12.6-11.2h-6.9V211h3.2v-8.1h3.6c1.1,0,2.2-0.1,3.2-0.3l5.9,8.3h3.8l-6.6-9.4C362.6,199.8,364.7,196.2,364.7,191.7z
	 M351.9,200h-3.4v-16.7h3.4c6.9,0,9.4,3.6,9.4,8.4S358.8,200,351.9,200z M550.4,180.1l-12.6,30.8h3.2l2-5.1h15.4l2.1,5.1h3.4
	L551,180.1H550.4z M557.2,203H544l5.4-13.5c0.6-1.4,1.2-3.6,1.2-3.6s0.6,2.2,1.2,3.6L557.2,203z M519.5,180.4h3.3v30.5h-3.3V180.4z
	 M592.3,39.4c0-2.8-1.9-5.2-5.9-5.2h-4.2v13.6h2.5v-3.3h1.7c0.3,0,0.6,0,0.8-0.1l2.2,3.4h2.8l-2.7-4C591.3,43,592.3,41.2,592.3,39.4
	z M586.4,42.5h-1.7v-6.2h1.7c2.4,0,3.3,1.3,3.3,3.1C589.7,41.4,588.8,42.5,586.4,42.5z M328.2,91.9c0,18.7,6.3,36,16.9,49.8h-24.7
	V42h24.7C334.5,55.9,328.2,73.2,328.2,91.9L328.2,91.9z M410.8,163.7c39.5,0,71.8-32.3,71.8-71.8s-32.3-71.8-71.8-71.8
	S339,52.4,339,91.9S371.3,163.7,410.8,163.7z M345.8,91.9c0-5.6,0.7-11,2.1-16.2c0.8-3.1,1.8-6.1,3.1-9c0.8-1.9,1.7-3.8,2.7-5.7
	c4-7.4,9.4-13.9,15.8-19.2c1.6-1.3,3.3-2.6,5-3.7c10.4-7,22.9-11.1,36.3-11.1l0,0c13.4,0,25.9,4.1,36.3,11.1c1.7,1.2,3.4,2.4,5,3.7
	c6.4,5.3,11.8,11.8,15.8,19.2c1,1.8,1.9,3.7,2.7,5.7c1.2,2.9,2.3,5.9,3.1,9c1.3,5.2,2.1,10.6,2.1,16.2l0,0l0,0
	c0,4.5-0.5,8.8-1.3,13.1c-1.1,5.3-2.8,10.3-5.1,15.1c-0.5,0.9-0.9,1.9-1.4,2.8c-1,1.8-2.1,3.6-3.3,5.4c-0.6,0.9-1.2,1.7-1.8,2.5
	c-1.9,2.5-3.9,4.9-6.1,7.1c-5.2,5.2-11.2,9.5-17.8,12.7c-1.9,0.9-3.8,1.7-5.8,2.5c-1,0.4-2,0.7-3,1c-2,0.6-4.1,1.2-6.2,1.6
	c-4.2,0.9-8.6,1.3-13.1,1.3l0,0c-4.5,0-8.8-0.5-13.1-1.3c-2.1-0.4-4.2-1-6.2-1.6c-1-0.3-2-0.7-3-1c-2-0.7-3.9-1.6-5.8-2.5
	c-6.6-3.2-12.6-7.5-17.8-12.7c-2.2-2.2-4.3-4.6-6.1-7.1c-0.6-0.8-1.2-1.7-1.8-2.5c-1.2-1.7-2.3-3.5-3.3-5.4c-0.5-0.9-1-1.9-1.4-2.8
	c-2.3-4.7-4-9.8-5.1-15.1C346.2,100.7,345.8,96.4,345.8,91.9L345.8,91.9L345.8,91.9z M139.6,191.7c0-6.6-4.3-11.2-12.6-11.2h-6.9
	V211h3.2v-8.1h3.6c1.1,0,2.2-0.1,3.2-0.3l5.9,8.3h3.8l-6.6-9.4C137.4,199.8,139.6,196.2,139.6,191.7z M126.8,200h-3.4v-16.7h3.4
	c6.9,0,9.4,3.6,9.4,8.4S133.7,200,126.8,200z M410.8,154.9L410.8,154.9c34.6,0,63-28.3,63-63l0,0c0-34.6-28.3-63-63-63l0,0
	c-34.6,0-63,28.3-63,63l0,0C347.8,126.5,376.1,154.9,410.8,154.9z M382.6,68.9c1-0.3,1.8-0.8,2.4-1.5l0,0c-0.9,3.1-1.4,6.5-1.1,10
	c1.1,15.3,14.4,26.8,29.7,25.7c13.4-1,24-11.3,25.6-24.2l2.9-0.2c-1.5,14.4-13.2,26.2-28.2,27.2c-15.2,1.1-28.6-9.2-32-23.6h-0.2
	l-1,0.1l-3,0.2c-0.3-1.5-0.6-3.1-0.7-4.8c-0.2-3.4,0-6.8,0.7-10C379.1,69,380.9,69.4,382.6,68.9z M380.6,59.1c2-0.6,4.2,0.6,4.8,2.6
	c0.6,2-0.6,4.2-2.6,4.8c-2,0.6-4.2-0.6-4.8-2.6C377.4,61.9,378.5,59.7,380.6,59.1z M405.4,87.4l26.1,0.6
	c-4.1,6.6-11.4,10.9-19.7,10.9L405.4,87.4z M411,98.9c-8.3-0.3-15.5-4.9-19.5-11.6l6.8-11.3L411,98.9z M400,58.6l4.5,5l-7.3-1.3
	L400,58.6z M397,61.7l-4.8,1.1l5.9-5.5L397,61.7z M404.3,60.7L404.3,60.7l7.4-8.2l0,0l3.4,10.5L404.3,60.7z M416.9,55.6l-3.2-3.7
	l7.7,2.6L416.9,55.6z M419.7,65.1l10.7-0.4l0,0l-5,9.5L419.7,65.1L419.7,65.1z M419.5,56.3l-1.1,6.7l-3.6-6.5L419.5,56.3z
	 M416.3,75.7c-0.1,2.5-2.2,4.5-4.7,4.4s-4.5-2.2-4.4-4.7s2.2-4.5,4.7-4.4S416.4,73.2,416.3,75.7z M418.8,87l13.6-22.4
	c1.8,3.4,2.8,7.4,2.7,11.5c-0.1,4.1-1.2,7.9-3.2,11.2L418.8,87z M433,63l-12.7-0.3l1.1-6.7L433,63z M427.5,55.2l4,0.9
	c1.7,2,2.9,4.4,3.6,6.9L427.5,55.2z M414.3,51.4c2.5-1,5-1.6,7.5-1.7l0.7,2.6L414.3,51.4z M400.8,51.9l3.9-3.4
	c3.3-0.2,6.6,0.2,9.6,1.4L400.8,51.9z M410.5,52l-8.4,8l-3.6-5L410.5,52z M398.6,54l-2.6-0.8c0.9-1.6,1.9-3,3.1-4.3L398.6,54z
	 M396.9,56.8l-7.3,4c1.4-2.3,3.2-4.2,5.1-5.8L396.9,56.8z M391.6,63.8l13.2,0.3l-13.6,22.5c-1.9-3.5-2.9-7.4-2.8-11.6
	C388.5,70.9,389.7,67.1,391.6,63.8z M438.5,55c2-0.6,4.2,0.6,4.8,2.6c0.6,2-0.6,4.2-2.6,4.8s-4.2-0.6-4.8-2.6
	C435.2,57.7,436.4,55.6,438.5,55z M380.9,83.1c3.7,14.7,17.4,25.1,33.1,24c15.9-1.1,28.2-13.7,29.4-29.1h-0.2l-0.9,0.1l-2.8,0.2
	c0.2-1.6,0.2-3.2,0.1-4.8c-0.2-3.5-1.1-6.7-2.5-9.7c1.3,1.1,3.1,1.5,4.8,1c1-0.3,1.8-0.8,2.4-1.5l0,0c1.2,3.1,1.9,6.3,2.1,9.8
	c1.4,19.1-13,35.7-32.1,37.1c-17.3,1.2-32.5-10.4-36.3-26.7L380.9,83.1z M429.8,39.9c18.3,6.1,30.6,21.2,34.8,37.1
	c4.4,16.5,1.7,32.6-9.4,48.1c0.1-0.7-1.2-2.3-1.4-2.6c-16.4-21.6-4.5-32.6-1.9-43.8c2.5-10.8-7-28.5-19.6-36c-1-0.6-4.3-2.7-4.5-3.3
	C427.7,39.3,426.2,38.8,429.8,39.9z M423.3,55.7l-1.2-2.4c1.7-0.4,3.5-0.6,5.3-0.6L423.3,55.7z M415.2,36.8c0.2,0,0.4,0,0.7,0.1
	l4.1,0.6l5.1,1.2c-1.6,0-11-0.3-12.4-0.2c-3.8,0.5-8.2,1.2-9.6,1.6c-11.7,3.1-25.4,12.4-30.1,21.8c0.9-0.3,1.5-1,2-0.8
	c0.9,1.2,0.8,1.2,1,1.6c-0.8,2.8-4.1,3.7-4.9,8.2c-0.3,3.9-0.5,8.7,1.1,8.5c0.1,0.4,0.2,0.7,0.2,0.9c0,0.3-0.2,0.4-0.4,1
	c-0.5,1.1-0.6,2.1-1,3.6c0,0.3,0.1,1,0.3,1.2c5.2,5.2-1,14.5-3.5,19.4c0.1,4.6,3.2,2.7,4.9,3.7c0.2,0.6-0.5,1.8-0.5,2.4
	c0.4,4.2,1,5.3,3.2,6.7c0,0.2,0.2,0.7,0.2,0.8c-1.4,4.5,2.9,3.8,4,5c0.9,1.5,1.4,3.9,1.4,8c0,4.4,4.1,5.4,7.7,3.5
	c14.3-7.6,27.2-14.9,41.5-22.6c-4.3,3.6-26.6,16.8-45.4,27c-14.8-7.5-24.2-20.6-28.1-36.2C347.5,67.2,379,32.9,415.2,36.8z
	 M99.4,180.4h3.3v30.5h-3.3V180.4z M78.8,180.4H82v30.5h-3.2v-10.3H62.5v10.3h-3.2v-30.5h3.2v17.2h16.3V180.4z M22.7,180.4h21.9v2.9
	h-9.4v27.6H32v-27.6h-9.4v-2.9H22.7z M152.5,180.4h21.9v2.9H165v27.6h-3.2v-27.6h-9.4L152.5,180.4L152.5,180.4z M275.4,180.1
	c-8.6,0-15.6,6.4-15.6,15.6c0,9.2,7,15.6,15.6,15.6c8.7,0,15.7-6.4,15.7-15.6S284.1,180.1,275.4,180.1z M275.4,208.3
	c-7.1,0-12.3-5.4-12.3-12.7s5.2-12.7,12.3-12.7c7.1,0,12.3,5.4,12.3,12.7C287.7,202.9,282.5,208.3,275.4,208.3z M325,180.4h3.2v20.1
	c0,7.1-4.7,10.7-10.9,10.7c-6.2,0-10.9-3.6-10.9-10.7v-20.1h3.2v19.8c0,5.4,3,8.1,7.7,8.1s7.7-2.7,7.7-8.1L325,180.4L325,180.4z
	 M209.7,180.4h3.4l-11.3,20.8v9.7h-3.3v-9.5l-11.5-21h3.6l8.3,15.1c0.7,1.2,1.3,3.1,1.3,3.1s0.7-1.9,1.3-3.1L209.7,180.4z
	 M283.8,141.7h-26.5h-0.2V64.5h-26.2V42h79.3v22.4H284v77.3L283.8,141.7L283.8,141.7z M227.8,180.4h18.3v2.9H231v14.3h13.7v3H231
	v10.3h-3.2V180.4z M175.6,39.7L175.6,39.7c-28.7,0-52.2,23.5-52.2,52.2l0,0c0,28.7,23.5,52.2,52.2,52.2l0,0
	c28.7,0,52.2-23.5,52.2-52.2l0,0C227.8,63.2,204.3,39.7,175.6,39.7z M203.2,91.9c0,15.2-12.4,27.6-27.6,27.6l0,0
	c-15.2,0-27.6-12.4-27.6-27.6l0,0c0-15.2,12.4-27.6,27.6-27.6l0,0C190.8,64.3,203.2,76.7,203.2,91.9L203.2,91.9z"/>
</svg>
